HIERARCHY
ROOT SpineBase
{
  OFFSET 0.000000 0.000000 0.000000
  CHANNELS 6 Xposition Yposition Zposition Zrotation Xrotation Yrotation
  JOINT SpineMid
  {
    OFFSET -0.000000 28.106431 0.000000
    CHANNELS 3 Zrotation Xrotation Yrotation
    JOINT SpineShoulder
    {
      OFFSET -0.117327 20.951272 -0.721655
      CHANNELS 3 Zrotation Xrotation Yrotation
      JOINT Neck
      {
        OFFSET -0.068546 6.953184 -0.534381
        CHANNELS 3 Zrotation Xrotation Yrotation
        JOINT Head
        {
          OFFSET -2.580150 12.124919 -0.499228
          CHANNELS 3 Zrotation Xrotation Yrotation
          End Site
          {
            OFFSET 0 0 0
          }
        }
      }
      JOINT ShoulderLeft
      {
        OFFSET -16.190713 -1.221497 7.170617
        CHANNELS 3 Zrotation Xrotation Yrotation
        JOINT ElbowLeft
        {
          OFFSET -3.749597 -27.209632 2.831308
          CHANNELS 3 Zrotation Xrotation Yrotation
          JOINT WristLeft
          {
            OFFSET -3.763708 -19.871585 -4.097479
            CHANNELS 3 Zrotation Xrotation Yrotation
            JOINT HandLeft
            {
              OFFSET 0.408142 -6.412971 -3.102306
              CHANNELS 3 Zrotation Xrotation Yrotation
              JOINT HandTipLeft
              {
                OFFSET -0.483726 -6.407665 -1.081574
                CHANNELS 3 Zrotation Xrotation Yrotation
                End Site
                {
                  OFFSET 0 0 0
                }
              }
              JOINT ThumbLeft
              {
                OFFSET -2.582240 -0.601160 -1.607370
                CHANNELS 3 Zrotation Xrotation Yrotation
                End Site
                {
                  OFFSET 0 0 0
                }
              }
            }
          }
        }
      }
      JOINT ShoulderRight
      {
        OFFSET 15.153417 -1.501038 -6.382180
        CHANNELS 3 Zrotation Xrotation Yrotation
        JOINT ElbowRight
        {
          OFFSET 6.356048 -26.727065 -3.257156
          CHANNELS 3 Zrotation Xrotation Yrotation
          JOINT WristRight
          {
            OFFSET 0.914974 -19.925666 -4.981976
            CHANNELS 3 Zrotation Xrotation Yrotation
            JOINT HandRight
            {
              OFFSET -0.987694 -7.668356 -1.984051
              CHANNELS 3 Zrotation Xrotation Yrotation
              JOINT HandTipRight
              {
                OFFSET -0.511739 -6.478691 -1.235257
                CHANNELS 3 Zrotation Xrotation Yrotation
                End Site
                {
                  OFFSET 0 0 0
                }
              }
              JOINT ThumbRight
              {
                OFFSET -3.296912 0.807081 -0.643318
                CHANNELS 3 Zrotation Xrotation Yrotation
                End Site
                {
                  OFFSET 0 0 0
                }
              }
            }
          }
        }
      }
    }
  }
  JOINT HipLeft
  {
    OFFSET -6.646881 0.557880 -1.311033
    CHANNELS 3 Zrotation Xrotation Yrotation
    JOINT KneeLeft
    {
      OFFSET -2.753875 -33.582818 3.883877
      CHANNELS 3 Zrotation Xrotation Yrotation
      JOINT AnkleLeft
      {
        OFFSET 2.600757 -33.327600 4.618041
        CHANNELS 3 Zrotation Xrotation Yrotation
        JOINT FootLeft
        {
          OFFSET -3.809399 -3.214944 -12.159870
          CHANNELS 3 Zrotation Xrotation Yrotation
          End Site
          {
            OFFSET 0 0 0
          }
        }
      }
    }
  }
  JOINT HipRight
  {
    OFFSET 6.152376 1.063974 -5.029572
    CHANNELS 3 Zrotation Xrotation Yrotation
    JOINT KneeRight
    {
      OFFSET 5.787906 -31.860971 2.140030
      CHANNELS 3 Zrotation Xrotation Yrotation
      JOINT AnkleRight
      {
        OFFSET 2.056089 -33.590370 6.500516
        CHANNELS 3 Zrotation Xrotation Yrotation
        JOINT FootRight
        {
          OFFSET -5.081140 -5.308994 -8.618570
          CHANNELS 3 Zrotation Xrotation Yrotation
          End Site
          {
            OFFSET 0 0 0
          }
        }
      }
    }
  }
}
MOTION
Frames: 10
Frame Time: 0.033333
26.810687 82.350207 346.844589 0.000000 0.000000 16.200046 -0.000000 0.000000 -16.200046 -0.000000 0.000000 0.000000 -0.000000 0.000000 0.000000 0.000000 0.000000 0.000000 -0.000000 0.000000 0.000000 -0.000000 0.000000 0.000000 -0.000000 0.000000 0.000000 -0.000000 0.000000 0.000000 0.000000 0.000000 0.000000 0.000000 0.000000 0.000000 -0.000000 0.000000 0.000000 -0.000000 0.000000 0.000000 -0.000000 0.000000 0.000000 -0.000000 0.000000 0.000000 0.000000 0.000000 0.000000 0.000000 0.000000 0.000000 -0.000000 0.000000 -16.200046 -0.000000 0.000000 0.000000 -0.000000 0.000000 0.000000 0.000000 0.000000 0.000000 -0.000000 0.000000 -16.200046 -0.000000 0.000000 0.000000 -0.000000 0.000000 0.000000 0.000000 0.000000 0.000000
26.811998 82.354917 346.769057 0.049761 -0.100701 16.248800 -0.019597 0.110602 -16.248737 -0.000000 0.000000 0.000000 -0.000000 0.000000 0.000000 0.000000 0.000000 0.000000 -0.000000 0.000000 0.000000 -0.000000 0.000000 0.000000 -0.442559 -2.146848 0.069801 0.079406 3.362856 -0.098591 0.000000 0.000000 0.000000 0.000000 0.000000 0.000000 -0.000000 0.000000 0.000000 -0.000000 0.000000 0.000000 -1.675262 0.532370 0.371541 0.428867 -1.405305 -0.072129 0.000000 0.000000 0.000000 0.000000 0.000000 0.000000 -0.019597 0.110602 -16.248737 -0.000000 0.000000 0.000000 -0.000000 0.000000 0.000000 0.000000 0.000000 0.000000 -0.019597 0.110602 -16.248737 -0.000000 0.000000 0.000000 -0.501167 4.288041 -3.073141 0.000000 0.000000 0.000000
26.799645 82.344033 346.686180 0.096471 -0.234293 16.329080 -0.026707 0.251965 -16.328824 -0.000000 0.000000 0.000000 0.651685 -1.200643 -0.221478 0.000000 0.000000 0.000000 -0.000000 0.000000 0.000000 0.292689 -0.752508 0.084253 -1.107018 -3.281095 0.038624 0.177587 6.038450 -0.151786 0.000000 0.000000 0.000000 0.000000 0.000000 0.000000 -0.000000 0.000000 0.000000 -0.000000 0.000000 0.000000 -3.204843 0.974757 0.726900 1.025463 -2.629614 -0.200604 0.000000 0.000000 0.000000 0.000000 0.000000 0.000000 -0.026707 0.251965 -16.328824 -0.000000 0.000000 0.000000 -0.000000 0.000000 0.000000 0.000000 0.000000 0.000000 -0.026707 0.251965 -16.328824 -0.000000 0.000000 0.000000 -0.673430 7.260642 -5.248216 0.000000 0.000000 0.000000
26.773629 82.317554 346.595959 0.140142 -0.400787 16.441039 -0.020979 0.424063 -16.440472 -0.000000 0.000000 0.000000 1.047521 -1.679961 -0.298266 0.000000 0.000000 0.000000 0.263683 -1.127082 0.185222 0.100049 0.029487 -0.050508 -1.477732 -4.566305 0.013383 0.291633 8.028302 -0.170905 0.000000 0.000000 0.000000 0.000000 0.000000 0.000000 -0.000000 0.000000 0.000000 -0.621745 0.785160 0.195484 -3.959495 0.557711 0.810852 1.758024 -3.687432 -0.364017 0.000000 0.000000 0.000000 0.000000 0.000000 0.000000 0.492470 -0.277908 -16.317906 -0.690014 0.529417 -0.120032 -0.000000 0.000000 0.000000 0.000000 0.000000 0.000000 -0.020979 0.424063 -16.440472 0.058828 -0.820048 -0.038337 -0.734658 9.896616 -6.615322 0.000000 0.000000 0.000000
26.733950 82.275480 346.498394 0.180787 -0.600204 16.584832 -0.001951 0.626836 -16.583874 -0.000000 0.000000 0.000000 1.491096 -2.077546 -0.352469 0.000000 0.000000 0.000000 0.401561 -1.507411 0.254581 -0.016849 0.086436 -0.058822 -1.728704 -5.619102 -0.037371 0.420936 9.334441 -0.163738 0.000000 0.000000 0.000000 0.000000 0.000000 0.000000 0.858832 -0.035504 -0.112646 -1.758779 0.807920 0.379665 -4.905232 0.840847 1.034647 2.605043 -4.590864 -0.547696 0.000000 0.000000 0.000000 0.000000 0.000000 0.000000 0.542911 -0.042531 -16.464307 -0.712231 0.487498 -0.119315 -0.000000 0.000000 0.000000 0.000000 0.000000 0.000000 -0.001951 0.626836 -16.583874 0.096634 -1.130380 -0.049443 -0.672008 10.981304 -7.342431 0.000000 0.000000 0.000000
26.680608 82.217812 346.393484 0.218416 -0.832578 16.760608 -0.171371 -0.031037 -16.760715 -0.071719 -0.057606 -0.006708 1.990701 -1.423484 -0.407810 0.000000 0.000000 0.000000 0.572998 -0.920664 0.328777 -0.208892 0.167326 -0.061577 -1.860944 -6.443830 -0.111518 0.566416 9.957627 -0.134799 0.000000 0.000000 0.000000 0.000000 0.000000 0.000000 0.993388 0.865821 -0.150025 -2.195042 0.733238 0.485017 -5.659307 1.167357 1.241567 3.553533 -5.349697 -0.742121 0.000000 0.000000 0.000000 0.000000 0.000000 0.000000 0.030950 0.860192 -16.759253 -0.000000 0.000000 0.000000 -0.000000 0.000000 0.000000 0.000000 0.000000 0.000000 0.733691 1.418616 -16.604972 -0.374670 -2.195047 -0.229375 -0.550688 11.089440 -7.430591 0.000000 0.000000 0.000000
26.633711 82.164656 346.273747 0.252969 -1.085440 16.858485 -0.220176 -0.054554 -16.858820 -0.084147 -0.066918 -0.008906 2.395991 -1.274117 -0.426976 0.000000 0.000000 0.000000 0.723046 -0.954393 0.390739 -0.411447 0.230257 -0.050219 -1.937790 -7.398004 -0.207928 1.652342 9.397854 -0.322630 0.000000 0.000000 0.000000 0.000000 0.000000 0.000000 1.029493 1.126836 -0.162437 -2.605537 0.604137 0.588847 -6.266420 1.477664 1.425752 5.194861 -6.121322 -1.014192 0.000000 0.000000 0.000000 0.000000 0.000000 0.000000 0.072683 1.112152 -16.856794 -0.000000 0.000000 0.000000 -0.110293 -0.415897 0.921134 0.000000 0.000000 0.000000 0.969487 1.867625 -16.658710 -0.432215 -2.839605 -0.291312 -0.036803 11.086278 -8.046634 0.000000 0.000000 0.000000
26.561191 82.081425 346.152923 0.247914 -1.361485 17.112363 -0.254577 -0.072099 -17.114168 -0.093112 -0.078217 -0.012052 2.989451 -0.971577 -0.416666 0.000000 0.000000 0.000000 0.932558 -1.013639 0.462967 -0.737376 0.304478 -0.019549 -1.876624 -7.689179 -0.303169 0.858237 6.914902 0.167220 0.000000 0.000000 0.000000 0.000000 0.000000 0.000000 1.158340 1.278958 -0.212454 -3.043532 0.342228 0.709299 -6.733132 1.977606 1.627432 6.101054 -6.790531 -1.179378 0.000000 0.000000 0.000000 0.000000 0.000000 0.000000 0.163680 1.374156 -17.111380 0.231920 -1.062651 -0.048571 -0.388500 0.504593 1.327779 0.000000 0.000000 0.000000 1.313110 2.173337 -16.888992 -0.536403 -3.311864 -0.322688 0.595508 4.098247 -3.243831 0.000000 0.000000 0.000000
26.476951 82.006263 346.029853 0.293953 -1.672759 17.480972 -0.279770 -0.104703 -17.481409 -0.094855 -0.086276 -0.012039 3.663407 -0.790778 -0.444290 0.000000 0.000000 0.000000 1.165495 -1.074994 0.545552 -1.241083 0.439366 0.017537 -1.754272 -7.883296 -0.398785 1.187491 7.619818 0.050750 0.000000 0.000000 0.000000 0.000000 0.000000 0.000000 1.021278 1.575549 -0.216029 -3.326552 -0.192575 0.775478 -6.872662 2.298484 1.799284 7.753503 -6.238700 -1.503277 0.000000 0.000000 0.000000 0.000000 0.000000 0.000000 0.222121 1.683800 -17.479945 0.633262 -1.646423 -0.031565 -0.810369 0.939882 1.590846 0.000000 0.000000 0.000000 1.616313 2.483934 -17.243091 -0.704742 -3.644096 -0.355292 0.914544 2.286954 -1.968508 0.000000 0.000000 0.000000
26.313598 81.831636 345.912836 0.292402 -2.067055 17.903847 -0.286474 -0.123435 -17.904861 -0.097405 -0.103227 -0.013815 4.596165 -0.601868 -0.486561 0.000000 0.000000 0.000000 1.525470 -1.120188 0.645082 -1.836478 0.723695 0.028733 -1.439407 -8.307136 -0.581758 2.105970 8.397336 -0.209710 0.000000 0.000000 0.000000 0.000000 0.000000 0.000000 1.265204 1.673332 -0.333552 -4.026737 -0.474281 0.979332 -6.846638 2.340598 1.945446 9.211030 -6.344640 -1.803519 0.000000 0.000000 0.000000 0.000000 0.000000 0.000000 0.003047 3.640183 -18.097416 2.067323 -3.619066 0.270530 -1.467586 1.338495 2.048777 0.000000 0.000000 0.000000 2.227420 2.813973 -17.645856 -1.119157 -4.143508 -0.422751 -0.796629 5.680304 -1.948504 0.000000 0.000000 0.000000
